<svg width="25.000000" height="23.431152" viewBox="0 0 25 23.4312" fill="none" xmlns="http://www.w3.org/2000/svg" xmlns:xlink="http://www.w3.org/1999/xlink">
	<desc>
			Created with Pixso.
	</desc>
	<defs/>
	<path d="M2.92 14.95L1.06 14.54C0.51 15.64 0 16.88 0 18.31C0 19.71 0.49 20.93 1.06 22.07L7.37 20.68L7.37 23.43L9.57 22.33L11.76 23.43L11.76 20.68L18.02 22.07C18.56 20.98 19.09 19.74 19.09 18.31C19.09 18.06 19.07 17.81 19.04 17.57L25 17.57L25 0L2.92 0L2.92 14.95ZM1.9 20.39C1.71 19.89 1.46 19.08 1.46 18.31C1.46 17.53 1.71 16.73 1.9 16.22L7.37 17.43L7.37 19.18L1.9 20.39ZM10.3 21.06L9.57 20.69L8.83 21.06L8.83 17.57L10.3 17.57L10.3 21.06ZM17.19 20.39L11.76 19.18L11.76 17.43L17.19 16.22C17.38 16.73 17.62 17.53 17.62 18.31C17.62 19.08 17.38 19.88 17.19 20.39ZM23.53 1.46L23.53 16.11L18.7 16.11C18.46 15.37 18.27 15.03 18.02 14.54L10.95 16.11L8.18 16.11L4.39 15.27L4.39 1.46L23.53 1.46Z" fill="#000000" fill-opacity="1.000000" fill-rule="nonzero"/>
	<path d="M8.83 2.92L19.09 2.92L19.09 4.39L8.83 4.39L8.83 2.92Z" fill="#000000" fill-opacity="1.000000" fill-rule="nonzero"/>
	<path d="M5.85 8.78L22.07 8.78L22.07 10.25L5.85 10.25L5.85 8.78Z" fill="#000000" fill-opacity="1.000000" fill-rule="nonzero"/>
	<path d="M8.83 11.71L19.09 11.71L19.09 13.18L8.83 13.18L8.83 11.71Z" fill="#000000" fill-opacity="1.000000" fill-rule="nonzero"/>
	<path d="M10.3 5.85L11.76 5.85L11.76 7.32L10.3 7.32L10.3 5.85Z" fill="#000000" fill-opacity="1.000000" fill-rule="nonzero"/>
	<path d="M13.23 5.85L14.69 5.85L14.69 7.32L13.23 7.32L13.23 5.85Z" fill="#000000" fill-opacity="1.000000" fill-rule="nonzero"/>
	<path d="M16.16 5.85L17.62 5.85L17.62 7.32L16.16 7.32L16.16 5.85Z" fill="#000000" fill-opacity="1.000000" fill-rule="nonzero"/>
</svg>
