<svg width="25.000000" height="25.000000" viewBox="0 0 25 25" fill="none" xmlns="http://www.w3.org/2000/svg" xmlns:xlink="http://www.w3.org/1999/xlink">
	<desc>
			Created with Pixso.
	</desc>
	<defs>
		<clipPath id="clip11_2">
			<rect rx="-0.500000" width="24.000000" height="24.000000" transform="translate(0.500000 0.500000)" fill="white" fill-opacity="0"/>
		</clipPath>
	</defs>
	<rect rx="-0.500000" width="24.000000" height="24.000000" transform="translate(0.500000 0.500000)" fill="#FFFFFF" fill-opacity="0"/>
	<g clip-path="url(#clip11_2)">
		<path d="M20.26 19.14L19.61 19.57L21.14 21.87L3.85 21.87L5.67 19.14L15.6 19.14L15.6 18.35L5.46 18.35C5.4 18.35 5.34 18.37 5.28 18.4C5.22 18.43 5.17 18.47 5.14 18.53L2.79 22.04C2.75 22.11 2.73 22.18 2.73 22.26L2.73 23.43C2.73 23.64 2.81 23.84 2.96 23.98C3.1 24.13 3.3 24.21 3.51 24.21L21.48 24.21C21.69 24.21 21.89 24.13 22.03 23.98C22.18 23.84 22.26 23.64 22.26 23.43L22.26 22.26C22.26 22.18 22.24 22.11 22.2 22.04L20.26 19.14ZM3.51 23.43L3.51 22.65L21.48 22.65L21.48 23.43L3.51 23.43Z" fill="#000000" fill-opacity="1.000000" fill-rule="nonzero"/>
		<path d="M20.31 0.78L4.68 0.78C4.37 0.78 4.07 0.9 3.85 1.12C3.64 1.34 3.51 1.64 3.51 1.95L3.51 12.1C3.51 12.41 3.64 12.71 3.85 12.93C4.07 13.15 4.37 13.28 4.68 13.28L10.15 13.28L10.15 14.84L8.59 14.84C8.49 14.84 8.39 14.88 8.31 14.95C8.24 15.03 8.2 15.13 8.2 15.23L8.2 16.79C8.2 16.9 8.24 16.99 8.31 17.07C8.39 17.14 8.49 17.18 8.59 17.18L16.4 17.18C16.5 17.18 16.6 17.14 16.68 17.07C16.75 16.99 16.79 16.9 16.79 16.79L16.79 15.23C16.79 15.13 16.75 15.03 16.68 14.95C16.6 14.88 16.5 14.84 16.4 14.84L14.84 14.84L14.84 13.28L20.31 13.28C20.62 13.28 20.92 13.15 21.14 12.93C21.35 12.71 21.48 12.41 21.48 12.1L21.48 1.95C21.48 1.64 21.35 1.34 21.14 1.12C20.92 0.9 20.62 0.78 20.31 0.78ZM16.01 15.62L16.01 16.4L8.98 16.4L8.98 15.62L16.01 15.62ZM10.93 14.84L10.93 13.28L14.06 13.28L14.06 14.84L10.93 14.84ZM20.7 12.1C20.7 12.21 20.66 12.31 20.58 12.38C20.51 12.45 20.41 12.5 20.31 12.5L4.68 12.5C4.58 12.5 4.48 12.45 4.41 12.38C4.33 12.31 4.29 12.21 4.29 12.1L4.29 10.93L20.7 10.93L20.7 12.1ZM20.7 10.15L4.29 10.15L4.29 1.95C4.29 1.84 4.33 1.75 4.41 1.67C4.48 1.6 4.58 1.56 4.68 1.56L20.31 1.56C20.41 1.56 20.51 1.6 20.58 1.67C20.66 1.75 20.7 1.84 20.7 1.95L20.7 10.15Z" fill="#000000" fill-opacity="1.000000" fill-rule="nonzero"/>
		<path d="M18.35 11.32L19.14 11.32L19.14 12.1L18.35 12.1L18.35 11.32Z" fill="#000000" fill-opacity="1.000000" fill-rule="nonzero"/>
		<path d="M8.98 9.37L10.54 9.37C10.65 9.37 10.74 9.33 10.82 9.26C10.89 9.18 10.93 9.08 10.93 8.98L10.93 8.59L14.06 8.59L14.06 8.98C14.06 9.08 14.1 9.18 14.17 9.26C14.25 9.33 14.34 9.37 14.45 9.37L16.01 9.37C16.11 9.37 16.21 9.33 16.29 9.26C16.36 9.18 16.4 9.08 16.4 8.98L16.4 7.42C16.4 7.31 16.36 7.21 16.29 7.14C16.21 7.07 16.11 7.03 16.01 7.03L15.62 7.03L15.62 4.68L16.01 4.68C16.11 4.68 16.21 4.64 16.29 4.57C16.36 4.49 16.4 4.4 16.4 4.29L16.4 2.73C16.4 2.63 16.36 2.53 16.29 2.45C16.21 2.38 16.11 2.34 16.01 2.34L14.45 2.34C14.34 2.34 14.25 2.38 14.17 2.45C14.1 2.53 14.06 2.63 14.06 2.73L14.06 3.12L10.93 3.12L10.93 2.73C10.93 2.63 10.89 2.53 10.82 2.45C10.74 2.38 10.65 2.34 10.54 2.34L8.98 2.34C8.88 2.34 8.78 2.38 8.7 2.45C8.63 2.53 8.59 2.63 8.59 2.73L8.59 4.29C8.59 4.4 8.63 4.49 8.7 4.57C8.78 4.64 8.88 4.68 8.98 4.68L9.37 4.68L9.37 7.03L8.98 7.03C8.88 7.03 8.78 7.07 8.7 7.14C8.63 7.21 8.59 7.31 8.59 7.42L8.59 8.98C8.59 9.08 8.63 9.18 8.7 9.26C8.78 9.33 8.88 9.37 8.98 9.37ZM15.62 8.59L14.84 8.59L14.84 7.81L15.62 7.81L15.62 8.59ZM14.84 3.12L15.62 3.12L15.62 3.9L14.84 3.9L14.84 3.12ZM9.37 3.12L10.15 3.12L10.15 3.9L9.37 3.9L9.37 3.12ZM10.15 4.68L10.54 4.68C10.65 4.68 10.74 4.64 10.82 4.57C10.89 4.49 10.93 4.4 10.93 4.29L10.93 3.9L14.06 3.9L14.06 4.29C14.06 4.4 14.1 4.49 14.17 4.57C14.25 4.64 14.34 4.68 14.45 4.68L14.84 4.68L14.84 7.03L14.45 7.03C14.34 7.03 14.25 7.07 14.17 7.14C14.1 7.21 14.06 7.31 14.06 7.42L14.06 7.81L10.93 7.81L10.93 7.42C10.93 7.31 10.89 7.21 10.82 7.14C10.74 7.07 10.65 7.03 10.54 7.03L10.15 7.03L10.15 4.68ZM9.37 7.81L10.15 7.81L10.15 8.59L9.37 8.59L9.37 7.81Z" fill="#000000" fill-opacity="1.000000" fill-rule="nonzero"/>
		<path d="M8.98 20.31L14.45 20.31L14.45 21.09L8.98 21.09L8.98 20.31Z" fill="#000000" fill-opacity="1.000000" fill-rule="nonzero"/>
		<path d="M23.38 14.39L22.28 13.28C22.24 13.24 22.2 13.22 22.15 13.2C22.1 13.18 22.05 13.17 22 13.17C21.95 13.17 21.9 13.18 21.85 13.2C21.8 13.22 21.76 13.24 21.73 13.28L16.48 18.53C16.43 18.57 16.4 18.62 16.38 18.68L16.1 19.51C16.08 19.58 16.08 19.65 16.1 19.72C16.11 19.79 16.15 19.86 16.2 19.91L15.65 20.46L16.2 21.01L16.75 20.46C16.79 20.5 16.83 20.53 16.88 20.55C16.93 20.57 16.98 20.58 17.03 20.58C17.07 20.58 17.11 20.57 17.15 20.56L17.98 20.28C18.04 20.26 18.09 20.23 18.13 20.19L23.38 14.94C23.45 14.86 23.5 14.76 23.5 14.66C23.5 14.56 23.45 14.46 23.38 14.39ZM17.65 19.57L17.14 19.74L16.92 19.53L17.09 19.01L20.89 15.21L21.45 15.76L17.65 19.57ZM22 15.21L21.45 14.66L22 14.11L22.55 14.66L22 15.21Z" fill="#000000" fill-opacity="1.000000" fill-rule="nonzero"/>
	</g>
</svg>
