<svg width="25.000000" height="25.000000" viewBox="0 0 25 25" fill="none" xmlns="http://www.w3.org/2000/svg" xmlns:xlink="http://www.w3.org/1999/xlink">
	<desc>
			Created with Pixso.
	</desc>
	<defs>
		<clipPath id="clip11_10">
			<rect rx="-0.500000" width="24.000000" height="24.000000" transform="translate(0.500000 0.500000)" fill="white" fill-opacity="0"/>
		</clipPath>
	</defs>
	<rect rx="-0.500000" width="24.000000" height="24.000000" transform="translate(0.500000 0.500000)" fill="#FFFFFF" fill-opacity="0"/>
	<g clip-path="url(#clip11_10)">
		<path d="M11.25 3.75L22.5 3.75L22.5 4.58L11.25 4.58L11.25 3.75Z" fill="#000000" fill-opacity="1.000000" fill-rule="evenodd"/>
		<path d="M11.25 5.41L18.33 5.41L18.33 6.25L11.25 6.25L11.25 5.41Z" fill="#000000" fill-opacity="1.000000" fill-rule="evenodd"/>
		<path d="M11.25 7.08L18.33 7.08L18.33 7.91L11.25 7.91L11.25 7.08Z" fill="#000000" fill-opacity="1.000000" fill-rule="evenodd"/>
		<path d="M14.58 2.08L22.49 2.08L22.49 2.91L14.58 2.91L14.58 2.08Z" fill="#000000" fill-opacity="1.000000" fill-rule="evenodd"/>
		<path d="M12.91 2.08L13.75 2.08L13.75 2.91L12.91 2.91L12.91 2.08Z" fill="#000000" fill-opacity="1.000000" fill-rule="evenodd"/>
		<path d="M12.08 16.66L12.91 16.66L12.91 17.5L12.08 17.5L12.08 16.66Z" fill="#000000" fill-opacity="1.000000" fill-rule="evenodd"/>
		<path d="M6.96 2.79L6.37 2.2L5.53 3.03C5.37 3.2 5.37 3.46 5.53 3.62L6.37 4.46L6.96 3.87L6.42 3.33L6.96 2.79Z" fill="#000000" fill-opacity="1.000000" fill-rule="nonzero"/>
		<path d="M10.29 3.03L9.46 2.2L8.87 2.79L9.41 3.33L8.87 3.87L9.46 4.46L10.29 3.62C10.45 3.46 10.45 3.2 10.29 3.03Z" fill="#000000" fill-opacity="1.000000" fill-rule="nonzero"/>
		<path d="M7.1 4.45L7.93 1.95L8.72 2.21L7.89 4.71L7.1 4.45Z" fill="#000000" fill-opacity="1.000000" fill-rule="evenodd"/>
		<path d="M21.66 12.91L21.66 9.58L20.83 9.58L20.83 12.91L20 12.91L20 8.75L19.16 8.75L19.16 12.91L18.33 12.91L18.33 10.83L17.5 10.83L17.5 12.91L16.66 12.91L16.66 10.41L15.83 10.41L15.83 12.91L15 12.91L15 11.25L14.16 11.25L14.16 12.91L13.33 12.91L13.33 13.75L22.5 13.75L22.5 12.91L21.66 12.91Z" fill="#000000" fill-opacity="1.000000" fill-rule="nonzero"/>
		<path d="M22.08 0L2.91 0C1.53 0 0.41 1.11 0.41 2.5L0.41 10.67L0.41 10.68L0.41 15.41L0.41 16.66C0.41 18.04 1.53 19.16 2.91 19.16L8.07 19.16L6.4 22.5L4.16 22.5C3.47 22.5 2.91 23.05 2.91 23.75C2.91 24.44 3.47 25 4.16 25L20.83 25C21.52 25 22.08 24.44 22.08 23.75C22.08 23.05 21.52 22.5 20.83 22.5L18.59 22.5L16.92 19.16L22.08 19.16C23.46 19.16 24.58 18.04 24.58 16.66L24.58 2.5C24.58 1.11 23.46 0 22.08 0ZM1.25 5.86L2.19 6.98C2.27 7.08 2.39 7.13 2.51 7.13L3.79 7.13C3.91 7.13 4.03 7.08 4.11 6.98L5.05 5.86L5.99 6.16L6.09 7.63C6.1 7.75 6.16 7.86 6.26 7.94L7.29 8.69C7.39 8.76 7.52 8.78 7.64 8.75L9.07 8.4L9.65 9.19L8.87 10.44C8.8 10.55 8.79 10.68 8.83 10.79L9.22 12.01C9.26 12.12 9.35 12.22 9.46 12.26L10.83 12.82L10.83 13.8L9.46 14.36C9.35 14.4 9.26 14.5 9.22 14.61L9.1 15L6.7 15C7.63 13.04 6.8 10.7 4.85 9.76C3.7 9.22 2.36 9.26 1.25 9.88L1.25 5.86ZM1.25 10.87C2.59 9.82 4.54 10.06 5.59 11.41C6.4 12.45 6.46 13.89 5.75 15L1.25 15L1.25 10.87ZM20.83 23.33C21.06 23.33 21.25 23.51 21.25 23.75C21.25 23.98 21.06 24.16 20.83 24.16L4.16 24.16C3.93 24.16 3.75 23.98 3.75 23.75C3.75 23.51 3.93 23.33 4.16 23.33L20.83 23.33ZM17.65 22.5L7.34 22.5L9 19.16L15.99 19.16L17.65 22.5ZM23.75 16.66C23.75 17.58 23 18.33 22.08 18.33L2.91 18.33C1.99 18.33 1.25 17.58 1.25 16.66L1.25 15.83L5.96 15.83L5.97 15.83L23.75 15.83L23.75 16.66ZM23.75 15L10.1 15L11.4 14.47C11.56 14.4 11.66 14.25 11.66 14.08L11.66 12.54C11.66 12.37 11.56 12.21 11.4 12.15L9.95 11.56L9.68 10.72L10.51 9.4C10.59 9.25 10.59 9.07 10.49 8.93L9.58 7.68C9.48 7.54 9.31 7.48 9.14 7.52L7.63 7.9L6.91 7.38L6.8 5.82C6.79 5.65 6.68 5.51 6.52 5.45L5.05 4.98C4.88 4.93 4.71 4.98 4.6 5.11L3.6 6.3L2.71 6.3L1.7 5.11C1.59 4.98 1.42 4.93 1.26 4.98L1.25 4.98L1.25 2.5C1.25 1.57 1.99 0.83 2.91 0.83L22.08 0.83C23 0.83 23.75 1.57 23.75 2.5L23.75 15Z" fill="#000000" fill-opacity="1.000000" fill-rule="nonzero"/>
	</g>
</svg>
