<svg width="19.786377" height="25.000000" viewBox="0 0 19.7864 25" fill="none" xmlns="http://www.w3.org/2000/svg" xmlns:xlink="http://www.w3.org/1999/xlink">
	<desc>
			Created with Pixso.
	</desc>
	<defs/>
	<path d="M17.11 16.33L15.64 15.9L12.45 13.81L12.45 13.33C13.37 12.64 14 11.57 14.12 10.35C14.59 10.28 14.94 9.87 14.94 9.39L14.94 8.07C14.94 8.07 14.94 8.06 14.94 8.06L14.94 6.4C15.13 6.26 15.24 6.05 15.24 5.81L15.24 4.28L17.45 3.91C17.81 3.85 18.07 3.56 18.09 3.19C18.12 2.83 17.9 2.51 17.55 2.39L10.12 0.03C9.97 -0.02 9.81 -0.02 9.65 0.03L2.22 2.39C1.87 2.51 1.66 2.83 1.68 3.19C1.7 3.43 1.81 3.63 1.98 3.76L1.98 5.75L1.96 5.75C1.54 5.75 1.2 6.09 1.2 6.51L1.2 7.5L0.71 10.37C0.63 10.87 1.01 11.32 1.52 11.32L3.18 11.32C3.68 11.32 4.06 10.87 3.98 10.37L3.49 7.5L3.49 6.51C3.49 6.09 3.15 5.75 2.73 5.75L2.71 5.75L2.71 3.97L4.53 4.28L4.53 5.81C4.53 6.05 4.65 6.26 4.83 6.39L4.84 8.08L4.84 9.39C4.84 9.87 5.19 10.28 5.65 10.35C5.77 11.57 6.41 12.64 7.33 13.33L7.33 13.81L4.14 15.9L2.67 16.33C1.1 16.79 9.15e-5 18.23 9.15e-5 19.9L9.15e-5 20.99C9.15e-5 21.2 0.16 21.36 0.36 21.36C0.56 21.36 0.73 21.2 0.73 20.99L0.73 19.9C0.73 18.58 1.61 17.4 2.88 17.03L4.24 16.63L9.7 19.87C9.81 19.94 9.96 19.94 10.08 19.87L15.53 16.63L16.9 17.03C18.16 17.4 19.05 18.58 19.05 19.9L19.05 23.44C19.05 23.89 18.68 24.26 18.23 24.26L16.61 24.26L16.61 22.68C16.61 22.48 16.45 22.32 16.25 22.32C16.04 22.32 15.88 22.48 15.88 22.68L15.88 24.26L3.9 24.26L3.9 22.68C3.9 22.48 3.73 22.32 3.53 22.32C3.33 22.32 3.16 22.48 3.16 22.68L3.16 24.26L1.55 24.26C1.1 24.26 0.73 23.89 0.73 23.44L0.73 22.71C0.73 22.5 0.56 22.34 0.36 22.34C0.16 22.34 0 22.5 0 22.71L0 23.44C0 24.3 0.69 25 1.55 25L18.23 25C19.08 25 19.78 24.3 19.78 23.44L19.78 19.9C19.78 18.27 18.71 16.8 17.11 16.33ZM3.18 10.59L1.52 10.59C1.47 10.59 1.43 10.54 1.44 10.49L1.88 7.89L2.81 7.89L3.26 10.49C3.27 10.54 3.23 10.59 3.18 10.59ZM2.76 6.51L2.76 7.16L1.94 7.16L1.94 6.51C1.94 6.49 1.95 6.48 1.96 6.48L2.73 6.48C2.75 6.48 2.76 6.49 2.76 6.51ZM8.58 18.22L8.72 18.44L4.99 16.22L7.36 14.67C7.47 15.93 7.88 17.15 8.58 18.22ZM8.58 16.64C9.44 16.76 10.34 16.76 11.2 16.64C11.03 17.05 10.83 17.44 10.58 17.82L9.89 18.89L9.19 17.82C8.95 17.44 8.74 17.05 8.58 16.64ZM11.2 18.22C11.89 17.15 12.31 15.93 12.42 14.67L14.79 16.22L11.05 18.44L11.2 18.22ZM13.34 6.53L14.21 6.53L14.21 7.71L13.78 7.71C13.54 7.71 13.34 7.51 13.34 7.27L13.34 6.53L13.34 6.53ZM2.45 3.09L9.87 0.73C9.88 0.73 9.89 0.73 9.9 0.73L17.33 3.09C17.34 3.1 17.37 3.1 17.36 3.14C17.36 3.18 17.34 3.18 17.32 3.19L14.87 3.6L13.95 3.49C13.74 3.47 13.56 3.61 13.54 3.81C13.51 4.01 13.65 4.19 13.86 4.22L14.51 4.3L14.51 5.8L5.27 5.8L5.27 4.3L9.06 3.83C9.61 3.76 10.17 3.76 10.72 3.83L12.15 4.01C12.35 4.03 12.54 3.89 12.56 3.69C12.59 3.49 12.44 3.3 12.24 3.28L10.81 3.1C10.2 3.03 9.58 3.03 8.97 3.1L4.91 3.6L2.45 3.19C2.44 3.18 2.41 3.18 2.41 3.14C2.41 3.1 2.43 3.1 2.45 3.09ZM5.57 7.71L5.57 6.53L6.44 6.53L6.44 7.27C6.44 7.51 6.24 7.71 6 7.71L5.57 7.71L5.57 7.71ZM6.37 10.16C6.35 9.86 6.11 9.63 5.81 9.63C5.68 9.63 5.57 9.52 5.57 9.39L5.57 8.44L6 8.44C6.64 8.44 7.17 7.92 7.17 7.27L7.17 6.53L12.61 6.53L12.61 7.27C12.61 7.92 13.13 8.44 13.78 8.44L14.21 8.44L14.21 9.39C14.21 9.52 14.1 9.63 13.97 9.63C13.67 9.63 13.42 9.86 13.4 10.16C13.29 12.01 11.74 13.46 9.89 13.46C8.03 13.46 6.49 12.01 6.37 10.16ZM9.89 14.19C10.54 14.19 11.16 14.04 11.71 13.78L11.71 14.01C11.71 14.64 11.63 15.25 11.47 15.85C10.47 16.04 9.35 16.05 8.31 15.85C8.15 15.25 8.06 14.64 8.06 14.01C8.06 14 8.06 14 8.06 13.99C8.06 13.99 8.06 13.98 8.06 13.98L8.06 13.78C8.62 14.04 9.24 14.19 9.89 14.19Z" fill="#000000" fill-opacity="1.000000" fill-rule="nonzero"/>
</svg>
