<svg width="20.000000" height="20.000000" viewBox="0 0 20 20" fill="none" xmlns="http://www.w3.org/2000/svg" xmlns:xlink="http://www.w3.org/1999/xlink">
	<desc>
			Created with Pixso.
	</desc>
	<defs/>
	<path d="M0 2.92L0 17.07C0 18.68 1.31 20 2.92 20L17.07 20C18.68 20 20 18.68 20 17.07L20 11.17L12.92 11.17L12.92 13.51L9.41 13.51L9.41 11.17L7.03 11.17C5.09 11.17 3.51 9.59 3.51 7.65L3.51 4.1L7.03 4.1L7.03 7.65L9.41 7.65L9.41 4.1L12.92 4.68L12.92 7.65L20 7.65L20 2.92C20 1.31 18.68 0 17.07 0L2.92 0C1.31 0 0 1.31 0 2.92Z" fill="#000000" fill-opacity="1.000000" fill-rule="nonzero"/>
</svg>
