<svg width="30.000000" height="30.000000" viewBox="0 0 30 30" fill="none" xmlns="http://www.w3.org/2000/svg" xmlns:xlink="http://www.w3.org/1999/xlink">
	<desc>
			Created with Pixso.
	</desc>
	<defs/>
	<path d="M25.6 0L4.39 0C1.97 0 0 1.97 0 4.39L0 25.6C0 28.02 1.97 30 4.39 30L13.24 30L13.24 19.39L9.72 19.39L9.72 14.12L13.24 14.12L13.24 10.54C13.24 7.63 15.6 5.27 18.51 5.27L23.84 5.27L23.84 10.54L18.51 10.54L18.51 14.12L23.84 14.12L22.96 19.39L18.51 19.39L18.51 30L25.6 30C28.02 30 30 28.02 30 25.6L30 4.39C30 1.97 28.02 0 25.6 0Z" fill="#000000" fill-opacity="1.000000" fill-rule="nonzero"/>
</svg>
