<svg width="19.000000" height="20.000000" viewBox="0 0 19 20" fill="none" xmlns="http://www.w3.org/2000/svg" xmlns:xlink="http://www.w3.org/1999/xlink">
	<desc>
			Created with Pixso.
	</desc>
	<defs/>
	<path d="M0 10C0 15.52 4.36 20 9.74 20C14.04 20 17.69 17.13 18.98 13.16C19.07 12.66 18.77 12.47 18.51 12.47C18.28 12.47 17.67 12.48 16.85 12.49C17.44 15.27 15.55 15.86 15.55 15.86C14.42 16.31 14.12 16.97 14.12 16.97C13.52 17.87 13.53 16.9 13.53 16.9C13.6 15.89 14.53 15.37 14.53 15.37C16.02 14.47 15.59 13.03 15.34 12.45C14.71 12.36 14.29 12.11 14.04 11.82C13.8 14.04 12.96 16.37 9.23 16.37C8.16 16.37 7.3 15.99 6.61 15.35C6.37 15.46 5.38 15.8 4.04 15.26C4.04 15.26 3.78 14.42 5.03 12.51C4.82 11.71 4.71 10.86 4.71 10.01C4.71 9.16 4.82 8.31 5.03 7.51C3.78 5.61 4.04 4.77 4.04 4.77C5.38 4.23 6.37 4.57 6.61 4.67C7.3 4.03 8.16 3.65 9.23 3.65C12.97 3.65 13.79 5.98 14.03 8.21C14.33 7.86 14.92 7.53 15.84 7.53C17.14 7.53 18.19 7.55 18.5 7.55C18.76 7.55 19.06 7.37 18.97 6.86C17.69 2.86 14.03 0 9.74 0C4.36 0 0 4.47 0 10Z" fill="#212121" fill-opacity="1.000000" fill-rule="nonzero"/>
</svg>
