<svg width="20.000000" height="20.000000" viewBox="0 0 20 20" fill="none" xmlns="http://www.w3.org/2000/svg" xmlns:xlink="http://www.w3.org/1999/xlink">
	<desc>
			Created with Pixso.
	</desc>
	<defs/>
	<path d="M0 6.25L0 13.75C0 17.2 2.79 20 6.25 20L13.75 20C17.2 20 20 17.2 20 13.75L20 6.25C20 2.79 17.2 0 13.75 0L6.25 0C2.79 0 0 2.79 0 6.25ZM13.75 1.87C16.16 1.87 18.12 3.83 18.12 6.25L18.12 13.75C18.12 16.16 16.16 18.12 13.75 18.12L6.25 18.12C3.83 18.12 1.87 16.16 1.87 13.75L1.87 6.25C1.87 3.83 3.83 1.87 6.25 1.87L13.75 1.87Z" fill="#000000" fill-opacity="1.000000" fill-rule="nonzero"/>
	<path d="M5 10C5 12.76 7.23 15 10 15C12.76 15 15 12.76 15 10C15 7.23 12.76 5 10 5C7.23 5 5 7.23 5 10ZM13.12 10C13.12 11.72 11.72 13.12 10 13.12C8.27 13.12 6.87 11.72 6.87 10C6.87 8.27 8.27 6.87 10 6.87C11.72 6.87 13.12 8.27 13.12 10Z" fill="#000000" fill-opacity="1.000000" fill-rule="nonzero"/>
	<path d="M4.62 3.95C4.99 3.95 5.29 4.25 5.29 4.62C5.29 4.99 4.99 5.29 4.62 5.29C4.25 5.29 3.95 4.99 3.95 4.62C3.95 4.25 4.25 3.95 4.62 3.95Z" fill="#000000" fill-opacity="1.000000" fill-rule="evenodd"/>
</svg>
