<svg width="30.000000" height="30.000000" viewBox="0 0 30 30" fill="none" xmlns="http://www.w3.org/2000/svg" xmlns:xlink="http://www.w3.org/1999/xlink">
	<desc>
			Created with Pixso.
	</desc>
	<defs/>
	<path d="M0 9.37L0 20.62C0 25.8 4.19 30 9.37 30L20.62 30C25.8 30 30 25.8 30 20.62L30 9.37C30 4.19 25.8 0 20.62 0L9.37 0C4.19 0 0 4.19 0 9.37ZM20.62 2.81C24.24 2.81 27.18 5.75 27.18 9.37L27.18 20.62C27.18 24.24 24.24 27.18 20.62 27.18L9.37 27.18C5.75 27.18 2.81 24.24 2.81 20.62L2.81 9.37C2.81 5.75 5.75 2.81 9.37 2.81L20.62 2.81Z" fill="#000000" fill-opacity="1.000000" fill-rule="nonzero"/>
	<path d="M7.5 15C7.5 19.14 10.85 22.5 15 22.5C19.14 22.5 22.5 19.14 22.5 15C22.5 10.85 19.14 7.5 15 7.5C10.85 7.5 7.5 10.85 7.5 15ZM19.68 15C19.68 17.58 17.58 19.68 15 19.68C12.41 19.68 10.31 17.58 10.31 15C10.31 12.41 12.41 10.31 15 10.31C17.58 10.31 19.68 12.41 19.68 15Z" fill="#000000" fill-opacity="1.000000" fill-rule="nonzero"/>
	<path d="M6.93 5.93C7.48 5.93 7.93 6.38 7.93 6.93C7.93 7.48 7.48 7.93 6.93 7.93C6.38 7.93 5.93 7.48 5.93 6.93C5.93 6.38 6.38 5.93 6.93 5.93Z" fill="#000000" fill-opacity="1.000000" fill-rule="evenodd"/>
</svg>
