<svg width="30.000000" height="30.000000" viewBox="0 0 30 30" fill="none" xmlns="http://www.w3.org/2000/svg" xmlns:xlink="http://www.w3.org/1999/xlink">
	<desc>
			Created with Pixso.
	</desc>
	<defs/>
	<path d="M15 30C23.28 30 30 23.28 30 15C30 6.71 23.28 0 15 0C6.71 0 0 6.71 0 15C0 23.28 6.71 30 15 30ZM6.86 14.67L21.32 9.09C21.99 8.85 22.58 9.26 22.36 10.27L22.36 10.27L19.9 21.87C19.72 22.7 19.23 22.89 18.54 22.51L14.8 19.74L12.99 21.49C12.79 21.69 12.62 21.85 12.23 21.85L12.5 18.04L19.45 11.76C19.75 11.49 19.38 11.34 18.98 11.61L10.39 17.02L6.69 15.86C5.89 15.61 5.87 15.06 6.86 14.67Z" fill="#000000" fill-opacity="1.000000" fill-rule="nonzero"/>
</svg>
